<?xml version="1.0" ?><svg xmlns="http://www.w3.org/2000/svg" xmlns:xlink="http://www.w3.org/1999/xlink" version="1.1" viewBox="0 0 512 512" style="enable-background:new 0 0 512 512;" xml:space="preserve"><g id="_x34_1_x2C__Playing_cards_x2C__Card_game_x2C__game_x2C__poker_x2C__playing_x2C__hobby_x2C__poker_cards_x2C__casino"><g><g><path style="fill:#283954;" d="M421,61h-30V31c0-16.542-13.458-30-30-30H91C74.458,1,61,14.458,61,31v390     c0,16.542,13.458,30,30,30h30v30c0,16.542,13.458,30,30,30h270c16.542,0,30-13.458,30-30V91C451,74.458,437.542,61,421,61z      M81,421V31c0-5.514,4.486-10,10-10h270c5.514,0,10,4.486,10,10v390c0,5.514-4.486,10-10,10H91C85.486,431,81,426.514,81,421z      M431,481c0,5.514-4.486,10-10,10H151c-5.514,0-10-4.486-10-10v-30h220c16.542,0,30-13.458,30-30V81h30c5.514,0,10,4.486,10,10     V481z"/><path style="fill:#283954;" d="M111,61h90c5.522,0,10-4.478,10-10s-4.478-10-10-10h-90c-5.522,0-10,4.478-10,10     S105.478,61,111,61z"/><path style="fill:#283954;" d="M171,91c0-5.522-4.478-10-10-10h-50c-5.522,0-10,4.478-10,10s4.478,10,10,10h50     C166.522,101,171,96.522,171,91z"/><path style="fill:#283954;" d="M251,411h90c5.522,0,10-4.478,10-10s-4.478-10-10-10h-90c-5.522,0-10,4.478-10,10     S245.478,411,251,411z"/><path style="fill:#283954;" d="M291,371h50c5.522,0,10-4.478,10-10s-4.478-10-10-10h-50c-5.522,0-10,4.478-10,10     S285.478,371,291,371z"/></g><g><path style="fill:#5596FB;" d="M341.158,100.842h-54.392c-2.912,0-5.679,1.27-7.579,3.476L166.258,235.5     c-10.904-5.044-24.382-3.157-33.521,5.98c-9.303,9.305-11.065,23.067-5.741,34.025l-18.833,18.833     c-9.747,9.748-9.747,25.607,0,35.355l14.143,14.143c9.75,9.748,25.607,9.746,35.355,0l18.833-18.833     c10.942,5.317,24.706,3.577,34.025-5.741c9.102-9.103,11.042-22.582,5.98-33.521l131.183-112.929     c2.206-1.9,3.476-4.667,3.476-7.579v-54.392C351.158,105.319,346.681,100.842,341.158,100.842z M143.519,329.694     c-1.949,1.949-5.121,1.949-7.07,0l-14.143-14.143c-1.949-1.949-1.949-5.121,0-7.07l17.678-17.678l21.213,21.213L143.519,329.694z      M189.48,307.977c-2.604,0-5.054-1.015-6.896-2.856c-12.285-12.285-23.347-23.347-35.705-35.705     c-3.812-3.812-3.811-9.981,0-13.792c3.812-3.812,9.98-3.811,13.791,0c10.498,10.498,22.895,22.895,35.706,35.706     c1.842,1.842,2.856,4.291,2.856,6.896C199.233,303.613,194.872,307.977,189.48,307.977z M331.158,160.646L203.702,270.369     l-22.07-22.07l109.722-127.457h39.805V160.646z"/></g></g></g><g id="Layer_1"/></svg>