<?xml version="1.0" ?>
<!DOCTYPE svg  PUBLIC '-//W3C//DTD SVG 1.1//EN'  'http://www.w3.org/Graphics/SVG/1.1/DTD/svg11.dtd'>
<!-- Uploaded to: SVG Repo, www.svgrepo.com, Generator: SVG Repo Mixer Tools -->
<svg fill="#000000" width="800px" height="800px" viewBox="0 0 2.33333 2.33333" style="shape-rendering:geometricPrecision; text-rendering:geometricPrecision; image-rendering:optimizeQuality; fill-rule:evenodd; clip-rule:evenodd" xml:space="preserve" xmlns="http://www.w3.org/2000/svg" xmlns:xlink="http://www.w3.org/1999/xlink">
<defs>
<style type="text/css">
   <![CDATA[
    .fil0 {fill:black;fill-rule:nonzero}
   ]]>
  </style>
</defs>
<g id="Layer_x0020_1">
<path class="fil0" d="M0.333335 0.930189l1.66667 0c0.0110433,0 0.02,0.00895669 0.02,0.02l0 0.854406c0,0.0110433 -0.00895669,0.02 -0.02,0.02l-1.66667 0c-0.0110433,0 -0.02,-0.00895669 -0.02,-0.02l0 -0.854406c0,-0.0110433 0.00895669,-0.02 0.02,-0.02zm1.64667 0.04l-1.62667 0 0 0.814406 1.62667 0 0 -0.814406z"/>
<path class="fil0" d="M0.353335 0.930189l1.62667 0 0 -0.217547c0,-0.0901142 -0.0738071,-0.163906 -0.163917,-0.163906l-1.29883 0c-0.0901102,0 -0.163913,0.0737953 -0.163913,0.163906l0 0.217547zm1.64667 0.04l-1.66667 0c-0.0110433,0 -0.02,-0.00895669 -0.02,-0.02l0 -0.237547c0,-0.112197 0.0917165,-0.203906 0.203913,-0.203906l1.29883 0c0.112197,0 0.203917,0.0917047 0.203917,0.203906l0 0.237547c0,0.0110433 -0.00895669,0.02 -0.02,0.02z"/>
<path class="fil0" d="M0.475094 1.06429l0.49426 0c0.0110433,0 0.02,0.00895669 0.02,0.02l0 0.263524 0.35463 0 0 -0.263524c0,-0.0110433 0.00895669,-0.02 0.02,-0.02l0.494252 0c0.0110433,0 0.02,0.00895669 0.02,0.02l0 0.586209c0,0.0110433 -0.00895669,0.02 -0.02,0.02l-1.38314 0c-0.0110433,0 -0.02,-0.00895669 -0.02,-0.02l0 -0.586209c0,-0.0110433 0.00895669,-0.02 0.02,-0.02zm0.47426 0.04l-0.45426 0 0 0.546209 1.34314 0 0 -0.546209 -0.454252 0 0 0.263524c0,0.0110433 -0.00895669,0.02 -0.02,0.02l-0.39463 0c-0.0110433,0 -0.02,-0.00895669 -0.02,-0.02l0 -0.263524z"/>
<path class="fil0" d="M0.969354 0.930189l0.39463 0c0.0110433,0 0.02,0.00895669 0.02,0.02l0 0.417622c0,0.0110433 -0.00895669,0.02 -0.02,0.02l-0.39463 0c-0.0110433,0 -0.02,-0.00895669 -0.02,-0.02l0 -0.417622c0,-0.0110433 0.00895669,-0.02 0.02,-0.02zm0.37463 0.04l-0.35463 0 0 0.377622 0.35463 0 0 -0.377622z"/>
<path class="fil0" d="M0.586205 0.646657c-0.0263307,0 -0.0263307,0.04 0,0.04l1.16092 0c0.0263307,0 0.0263307,-0.04 0,-0.04l-1.16092 0z"/>
<path class="fil0" d="M0.745248 0.79226c-0.0263307,0 -0.0263307,0.04 0,0.04l0.842839 0c0.0263307,0 0.0263307,-0.04 0,-0.04l-0.842839 0z"/>
<path class="fil0" d="M0.71124 1.44181c-0.0263307,0 -0.0263307,0.04 0,0.04l0.91085 0c0.0263307,0 0.0263307,-0.04 0,-0.04l-0.91085 0z"/>
<path class="fil0" d="M0.836024 1.5565c-0.0263307,0 -0.0263307,0.04 0,0.04l0.661287 0c0.0263307,0 0.0263307,-0.04 0,-0.04l-0.661287 0z"/>
<path class="fil0" d="M1.16667 1.02526c0.041315,0 0.0749055,0.0336063 0.0749055,0.0749016 0,0.041315 -0.0336102,0.0749055 -0.0749055,0.0749055 -0.0413189,0 -0.0749055,-0.0335827 -0.0749055,-0.0749055 0,-0.0412835 0.0336417,-0.0749016 0.0749055,-0.0749016zm0 0.04c-0.0459764,0 -0.0459646,0.0698071 0,0.0698071 0.0459646,0 0.0459803,-0.0698071 0,-0.0698071z"/>
<path class="fil0" d="M1.18667 1.15592c0,-0.0263307 -0.04,-0.0263307 -0.04,0l0 0.116823c0,0.0263307 0.04,0.0263307 0.04,0l0 -0.116823z"/>
</g>
</svg>