<!DOCTYPE svg PUBLIC "-//W3C//DTD SVG 1.1//EN" "http://www.w3.org/Graphics/SVG/1.1/DTD/svg11.dtd">
<!-- Uploaded to: SVG Repo, www.svgrepo.com, Transformed by: SVG Repo Mixer Tools -->
<svg fill="#000000" height="800px" width="800px" version="1.1" id="Layer_1" xmlns="http://www.w3.org/2000/svg" xmlns:xlink="http://www.w3.org/1999/xlink" viewBox="0 0 512 512" xml:space="preserve">
<g id="SVGRepo_bgCarrier" stroke-width="0"/>
<g id="SVGRepo_tracerCarrier" stroke-linecap="round" stroke-linejoin="round"/>
<g id="SVGRepo_iconCarrier"> <g> <g> <path d="M449.625,0H62.375C27.981,0,0,27.981,0,62.375v387.251C0,484.019,27.981,512,62.375,512h387.251 C484.019,512,512,484.019,512,449.625V62.375C512,27.981,484.019,0,449.625,0z M495.832,449.625 c0,25.478-20.728,46.206-46.206,46.206H62.375c-25.478,0-46.206-20.728-46.206-46.206V62.375 c0-25.478,20.728-46.206,46.206-46.206h387.251c25.478,0,46.206,20.728,46.206,46.206V449.625z"/> </g> </g> <g> <g> <path d="M137.432,237.137h-13.474v-13.474c0-4.466-3.618-8.084-8.084-8.084c-4.466,0-8.084,3.618-8.084,8.084v13.474H94.316 c-4.466,0-8.084,3.618-8.084,8.084c0,4.466,3.619,8.084,8.084,8.084h13.474v13.474c0,4.466,3.618,8.084,8.084,8.084 c4.466,0,8.084-3.618,8.084-8.084v-13.474h13.474c4.466,0,8.084-3.618,8.084-8.084 C145.516,240.755,141.897,237.137,137.432,237.137z"/> </g> </g> <g> <g> <path d="M136.837,394.875l-9.528-9.527l9.528-9.528c3.155-3.158,3.155-8.276-0.002-11.433c-3.158-3.156-8.276-3.156-11.433,0 l-9.527,9.528l-9.528-9.528c-3.158-3.156-8.276-3.156-11.433,0c-3.157,3.158-3.157,8.276,0,11.433l9.528,9.528l-9.528,9.527 c-3.157,3.158-3.157,8.276,0,11.433c1.579,1.578,3.649,2.367,5.717,2.367s4.138-0.789,5.717-2.367l9.527-9.527l9.528,9.527 c1.579,1.578,3.649,2.367,5.717,2.367s4.138-0.789,5.717-2.367C139.994,403.15,139.994,398.032,136.837,394.875z"/> </g> </g> <g> <g> <path d="M277.558,237.137h-43.116c-4.466,0-8.084,3.618-8.084,8.084c0,4.466,3.618,8.084,8.084,8.084h43.116 c4.466,0,8.084-3.618,8.084-8.084C285.642,240.755,282.024,237.137,277.558,237.137z"/> </g> </g> <g> <g> <path d="M417.684,291.032h-43.116c-4.466,0-8.084,3.619-8.084,8.084c0,4.466,3.619,8.084,8.084,8.084h43.116 c4.466,0,8.084-3.618,8.084-8.084C425.768,294.65,422.15,291.032,417.684,291.032z"/> </g> </g> <g> <g> <path d="M417.684,323.368h-43.116c-4.466,0-8.084,3.619-8.084,8.084s3.619,8.084,8.084,8.084h43.116 c4.466,0,8.084-3.619,8.084-8.084S422.15,323.368,417.684,323.368z"/> </g> </g> <g> <g> <path d="M277.558,377.263h-43.116c-4.466,0-8.084,3.618-8.084,8.084c0,4.466,3.618,8.084,8.084,8.084h43.116 c4.466,0,8.084-3.618,8.084-8.084C285.642,380.882,282.024,377.263,277.558,377.263z"/> </g> </g> <g> <g> <circle cx="256" cy="363.789" r="10.779"/> </g> </g> <g> <g> <circle cx="256" cy="406.905" r="10.779"/> </g> </g> <g> <g> <path d="M423.461,43.116H88.539c-19.134,0-34.645,15.511-34.645,34.645v43.891c0,19.133,15.511,34.644,34.645,34.644h233.305 c4.465,0,8.084-3.62,8.084-8.084c0-4.465-3.62-8.084-8.084-8.084H88.539c-10.204,0-18.476-8.272-18.476-18.476V77.76 c0-10.204,8.272-18.476,18.476-18.476h334.922c10.203,0,18.475,8.272,18.475,18.476v43.891c0,10.203-8.272,18.476-18.476,18.476 h-65.973c-4.465,0-8.084,3.62-8.084,8.084c0,4.465,3.62,8.084,8.084,8.084h65.973c19.134-0.001,34.645-15.512,34.645-34.646V77.76 C458.105,58.627,442.594,43.116,423.461,43.116z"/> </g> </g> <g> <g> <path d="M145.738,183.242H86.01c-17.709,0-32.115,14.406-32.115,32.115v59.728c0,17.709,14.406,32.115,32.115,32.115h59.728 c17.709,0,32.115-14.406,32.115-32.115v-59.728C177.853,197.648,163.447,183.242,145.738,183.242z M161.684,275.085 c0,8.792-7.154,15.946-15.946,15.946H86.01c-8.792,0-15.946-7.154-15.946-15.946v-59.728c0-8.792,7.154-15.946,15.946-15.946 h59.728c8.792,0,15.946,7.154,15.946,15.946V275.085z"/> </g> </g> <g> <g> <path d="M425.99,183.242h-59.728c-17.709,0-32.115,14.406-32.115,32.115v199.855c0,17.709,14.406,32.115,32.115,32.115h59.728 c17.709,0,32.115-14.406,32.115-32.115V215.357C458.105,197.648,443.699,183.242,425.99,183.242z M441.937,415.211 c0,8.792-7.154,15.946-15.946,15.946h-59.728c-8.792,0-15.946-7.154-15.946-15.946V215.357c0-8.792,7.154-15.946,15.946-15.946 h59.728c8.792,0,15.946,7.154,15.946,15.946V415.211z"/> </g> </g> <g> <g> <path d="M285.864,183.242h-59.728c-17.709,0-32.115,14.406-32.115,32.115v59.728c0,17.709,14.406,32.115,32.115,32.115h59.728 c17.709,0,32.115-14.406,32.115-32.115v-59.728C317.979,197.648,303.573,183.242,285.864,183.242z M301.811,275.085 c0,8.792-7.154,15.946-15.946,15.946h-59.728c-8.792,0-15.946-7.154-15.946-15.946v-59.728c0-8.792,7.154-15.946,15.946-15.946 h59.728c8.792,0,15.946,7.154,15.946,15.946V275.085z"/> </g> </g> <g> <g> <path d="M145.738,323.368H86.01c-17.709,0-32.115,14.406-32.115,32.115v59.728c0,17.709,14.406,32.115,32.115,32.115h59.728 c17.709,0,32.115-14.406,32.115-32.115v-59.728C177.853,337.774,163.447,323.368,145.738,323.368z M161.684,415.211 c0,8.792-7.154,15.946-15.946,15.946H86.01c-8.792,0-15.946-7.154-15.946-15.946v-59.728c0-8.792,7.154-15.946,15.946-15.946 h59.728c8.792,0,15.946,7.154,15.946,15.946V415.211z"/> </g> </g> <g> <g> <path d="M285.864,323.368h-59.728c-17.709,0-32.115,14.406-32.115,32.115v59.728c0,17.709,14.406,32.115,32.115,32.115h59.728 c17.709,0,32.115-14.406,32.115-32.115v-59.728C317.979,337.774,303.573,323.368,285.864,323.368z M301.811,415.211 c0,8.792-7.154,15.946-15.946,15.946h-59.728c-8.792,0-15.946-7.154-15.946-15.946v-59.728c0-8.792,7.154-15.946,15.946-15.946 h59.728c8.792,0,15.946,7.154,15.946,15.946V415.211z"/> </g> </g> </g>
</svg>